<svg width="20" height="20" viewBox="0 0 20 20" fill="none" xmlns="http://www.w3.org/2000/svg">
<g clip-path="url(#clip0_2_808)">
<path d="M13.2259 3.33374C14.4075 3.33374 15.3743 4.24976 15.4564 5.40991L15.4622 5.57007L15.4603 5.83569L18.1556 6.92749C18.9466 7.2478 19.4818 7.98804 19.5462 8.82983L19.5521 8.99976V12.8845C19.5521 13.9626 18.7884 14.863 17.7728 15.074C17.7747 15.0818 17.7747 15.0916 17.7747 15.1013C17.7747 16.3455 16.7747 17.3572 15.5384 17.3572C14.3079 17.3572 13.3138 16.3572 13.3021 15.1228L8.1302 15.1208L8.12825 15.2556C8.05012 16.4275 7.08137 17.3572 5.89583 17.3572C4.6595 17.3572 3.6595 16.3455 3.6595 15.1013C2.64387 14.9333 1.85481 14.0876 1.78255 13.0447L1.77669 12.8845V12.0447C1.77669 11.7126 2.04622 11.4451 2.3763 11.4431C2.67512 11.4431 2.92122 11.6599 2.96809 11.947L2.97591 12.0447V12.8845C2.97591 13.4177 3.3802 13.8591 3.89973 13.9158L4.01302 13.9216H14.2611V5.57007C14.2611 5.03687 13.8568 4.59546 13.3372 4.53882L13.2259 4.53296H4.01302C3.47981 4.53296 3.03841 4.93726 2.98177 5.45679L2.97591 5.57007V6.46851H6.46809C6.76692 6.46851 7.01301 6.6853 7.05989 6.97241L7.0677 7.07007C7.0677 7.3689 6.85091 7.61499 6.5638 7.66187L6.46809 7.66968H2.3763C2.07747 7.66968 1.83137 7.45288 1.7845 7.16577L1.77669 7.07007V5.57007C1.77669 4.38843 2.6927 3.42163 3.85286 3.3396L4.01302 3.33374H13.2259ZM16.5736 15.1228L14.5013 15.1208L14.5072 15.2166C14.5638 15.7459 15.0052 16.158 15.5384 16.158C16.1029 16.158 16.5638 15.699 16.5736 15.1228ZM6.93294 15.1228L4.86067 15.1208L4.86653 15.2166C4.92317 15.7459 5.36458 16.158 5.89583 16.158C6.46028 16.158 6.92122 15.699 6.93294 15.1228ZM15.4603 7.13062V13.9216H17.3158C17.849 13.9216 18.2904 13.5173 18.345 12.9978L18.3529 12.8845V8.99976C18.3529 8.57788 18.097 8.19702 17.7044 8.03882L15.4603 7.13062ZM3.03645 8.95288C3.36848 8.95288 3.63606 9.22241 3.63606 9.55249C3.63606 9.85132 3.41927 10.0974 3.13411 10.1462L3.03645 10.1541H0.595047C0.263016 10.1541 -0.00456238 9.88452 -0.00456238 9.55249C-0.00456238 9.25366 0.212234 9.00757 0.499344 8.96069L0.595047 8.95288H3.03645Z" fill="#FF008A"/>
</g>
<defs>
<clipPath id="clip0_2_808">
<rect width="20" height="20" fill="white"/>
</clipPath>
</defs>
</svg>
